<?xml version="1.0" encoding="UTF-8" standalone="no"?>
<svg
   version="1.1"
   viewBox="0 0 256 85.085"
   id="svg32"
   sodipodi:docname="manjarolinux-logo-text.svg"
   inkscape:version="1.1.1 (3bf5ae0d25, 2021-09-20, custom)"
   xmlns:inkscape="http://www.inkscape.org/namespaces/inkscape"
   xmlns:sodipodi="http://sodipodi.sourceforge.net/DTD/sodipodi-0.dtd"
   xmlns="http://www.w3.org/2000/svg"
   xmlns:svg="http://www.w3.org/2000/svg">
  <defs
     id="defs36" />
  <sodipodi:namedview
     id="namedview34"
     pagecolor="#505050"
     bordercolor="#eeeeee"
     borderopacity="1"
     inkscape:pageshadow="0"
     inkscape:pageopacity="0"
     inkscape:pagecheckerboard="0"
     showgrid="false"
     inkscape:zoom="1.747051"
     inkscape:cx="94.731064"
     inkscape:cy="53.518758"
     inkscape:window-width="1914"
     inkscape:window-height="1047"
     inkscape:window-x="1923"
     inkscape:window-y="3"
     inkscape:window-maximized="1"
     inkscape:current-layer="svg32" />
  <g
     id="g887"
     transform="matrix(0.23243445,0,0,0.23243445,9.6546794,19.285772)">
    <path
       id="path3835"
       d="M 167.11719 23.720703 C 166.37243 23.720735 165.73858 23.984096 165.21289 24.509766 C 164.68718 25.035497 164.42382 25.671302 164.42383 26.416016 C 164.42382 27.160787 164.68718 27.794639 165.21289 28.320312 C 165.73858 28.84604 166.37243 29.109401 167.11719 29.109375 C 167.86192 29.109401 168.49772 28.84604 169.02344 28.320312 C 169.54913 27.794639 169.81249 27.160787 169.8125 26.416016 C 169.81249 25.671302 169.54913 25.035497 169.02344 24.509766 C 168.49772 23.984096 167.86192 23.720735 167.11719 23.720703 z M 167.11719 30.773438 C 166.48926 30.773463 165.94877 31.000461 165.49609 31.453125 C 165.058 31.891231 164.83984 32.431719 164.83984 33.074219 L 164.83984 55.197266 C 164.83984 56.029627 164.67868 56.810874 164.35742 57.541016 C 164.03615 58.271153 163.59787 58.906958 163.04297 59.447266 C 162.50266 60.002168 161.86881 60.43357 161.13867 60.740234 C 160.40853 61.061491 159.62728 61.220698 158.79492 61.220703 C 158.13779 61.220698 157.58847 61.433936 157.15039 61.857422 C 156.72691 62.2955 156.51562 62.842866 156.51562 63.5 C 156.51562 64.157118 156.72691 64.704486 157.15039 65.142578 C 157.58847 65.580654 158.13779 65.798819 158.79492 65.798828 C 160.2406 65.798819 161.60557 65.514812 162.89062 64.945312 C 164.17566 64.390396 165.29988 63.629793 166.26367 62.666016 C 167.22745 61.702224 167.9861 60.578013 168.54102 59.292969 C 169.11051 58.00792 169.39647 56.642945 169.39648 55.197266 L 169.39648 33.074219 C 169.39647 32.431719 169.16947 31.891231 168.7168 31.453125 C 168.2787 31.000461 167.7451 30.773463 167.11719 30.773438 z M 70.673828 31.025391 C 70.045904 31.025416 69.505419 31.250461 69.052734 31.703125 C 68.614649 32.141231 68.394529 32.674836 68.394531 33.302734 L 68.394531 53.257812 C 68.394529 53.900338 68.614649 54.447704 69.052734 54.900391 C 69.505419 55.338474 70.052785 55.556641 70.695312 55.556641 C 71.32323 55.556641 71.856832 55.338474 72.294922 54.900391 C 72.747602 54.447704 72.972652 53.900338 72.972656 53.257812 L 72.972656 40.792969 C 72.972652 40.077447 73.10433 39.407235 73.367188 38.779297 C 73.644635 38.151394 74.017079 37.604028 74.484375 37.136719 C 74.96626 36.654845 75.522462 36.282401 76.150391 36.019531 C 76.778303 35.742097 77.448513 35.601583 78.164062 35.601562 C 78.879586 35.601583 79.551752 35.742097 80.179688 36.019531 C 80.807593 36.297005 81.354961 36.669449 81.822266 37.136719 C 82.28954 37.604028 82.661985 38.151394 82.939453 38.779297 C 83.216889 39.407235 83.355452 40.077447 83.355469 40.792969 L 83.355469 53.257812 C 83.355452 53.900338 83.57557 54.447704 84.013672 54.900391 C 84.46634 55.338474 85.013708 55.556641 85.65625 55.556641 C 86.284151 55.556641 86.817755 55.338474 87.255859 54.900391 C 87.708525 54.447704 87.933573 53.900338 87.933594 53.257812 L 87.933594 40.792969 C 87.933573 40.077447 88.065253 39.407235 88.328125 38.779297 C 88.605556 38.151394 88.978001 37.604028 89.445312 37.136719 C 89.927182 36.669449 90.48143 36.297005 91.109375 36.019531 C 91.737271 35.742097 92.409437 35.601583 93.125 35.601562 C 93.855114 35.601583 94.53416 35.742097 95.162109 36.019531 C 95.804605 36.297005 96.358853 36.676329 96.826172 37.158203 C 97.293433 37.62551 97.658992 38.172878 97.921875 38.800781 C 98.199295 39.428719 98.33786 40.092051 98.337891 40.792969 L 98.337891 53.257812 C 98.33786 53.900338 98.557978 54.447704 98.996094 54.900391 C 99.434147 55.338474 99.974632 55.556641 100.61719 55.556641 C 101.24507 55.556641 101.77672 55.338474 102.21484 54.900391 C 102.66749 54.447704 102.89449 53.900338 102.89453 53.257812 L 102.89453 40.792969 C 102.89449 39.464129 102.63113 38.208236 102.10547 37.025391 C 101.59433 35.827979 100.89464 34.792208 100.00391 33.916016 C 99.127705 33.025266 98.089976 32.323621 96.892578 31.8125 C 95.709719 31.286824 94.453828 31.025416 93.125 31.025391 C 90.175207 31.025416 87.686019 32.185988 85.65625 34.507812 C 84.692447 33.339609 83.568233 32.469925 82.283203 31.900391 C 80.99814 31.316304 79.62433 31.025416 78.164062 31.025391 C 76.178068 31.025416 74.404291 31.543302 72.841797 32.580078 C 72.695763 32.112811 72.425519 31.740366 72.03125 31.462891 C 71.636969 31.170858 71.184924 31.025416 70.673828 31.025391 z M 119.08203 31.025391 C 115.69417 31.025416 112.80306 32.222348 110.4082 34.617188 C 108.01334 37.012067 106.81445 39.90318 106.81445 43.291016 C 106.81445 46.678878 108.01334 49.569988 110.4082 51.964844 C 112.80306 54.359707 115.69417 55.556641 119.08203 55.556641 C 120.5423 55.556641 121.91415 55.32276 123.19922 54.855469 C 124.48425 54.38818 125.6743 53.717968 126.76953 52.841797 L 126.76953 53.279297 C 126.76951 53.907219 126.98963 54.447704 127.42773 54.900391 C 127.8804 55.338474 128.42777 55.556641 129.07031 55.556641 C 129.69821 55.556641 130.23181 55.338474 130.66992 54.900391 C 131.12258 54.447704 131.34763 53.907219 131.34766 53.279297 L 131.34766 43.291016 C 131.34763 39.90318 130.1507 37.012067 127.75586 34.617188 C 125.33177 32.222348 122.44066 31.025416 119.08203 31.025391 z M 137.13086 31.025391 C 136.48833 31.025416 135.94097 31.250461 135.48828 31.703125 C 135.05019 32.155835 134.83008 32.69632 134.83008 33.324219 L 134.83008 53.257812 C 134.83008 53.900338 135.05019 54.447704 135.48828 54.900391 C 135.94097 55.338474 136.48833 55.556641 137.13086 55.556641 C 137.75878 55.556641 138.29238 55.338474 138.73047 54.900391 C 139.18315 54.447704 139.4082 53.900338 139.4082 53.257812 L 139.4082 42.458984 C 139.4082 41.524419 139.58507 40.640969 139.93555 39.808594 C 140.30061 38.976251 140.7959 38.245128 141.42383 37.617188 C 142.05174 36.989287 142.77403 36.500876 143.5918 36.150391 C 144.42415 35.785341 145.31643 35.601583 146.26562 35.601562 C 147.20019 35.601583 148.08364 35.785341 148.91602 36.150391 C 149.74836 36.51548 150.47065 37.010769 151.08398 37.638672 C 151.71189 38.252008 152.20913 38.976251 152.57422 39.808594 C 152.93927 40.640969 153.12108 41.524419 153.12109 42.458984 L 153.12109 53.257812 C 153.12108 53.900338 153.33924 54.447704 153.77734 54.900391 C 154.23001 55.338474 154.77738 55.556641 155.41992 55.556641 C 156.04782 55.556641 156.58142 55.338474 157.01953 54.900391 C 157.47219 54.447704 157.6992 53.900338 157.69922 53.257812 L 157.69922 42.458984 C 157.6992 40.881896 157.39259 39.399004 156.7793 38.011719 C 156.16596 36.609867 155.33263 35.397216 154.28125 34.375 C 153.22983 33.338221 152.01029 32.520615 150.62305 31.921875 C 149.25037 31.323184 147.79891 31.025416 146.26562 31.025391 C 143.63711 31.025416 141.35037 31.777185 139.4082 33.28125 C 139.4082 32.682559 139.18315 32.155835 138.73047 31.703125 C 138.29238 31.250461 137.75878 31.025416 137.13086 31.025391 z M 185.01367 31.025391 C 181.62581 31.025416 178.7347 32.222348 176.33984 34.617188 C 173.94498 37.012067 172.74805 39.90318 172.74805 43.291016 C 172.74805 46.678878 173.94498 49.569988 176.33984 51.964844 C 178.7347 54.359707 181.62581 55.556641 185.01367 55.556641 C 186.47394 55.556641 187.84579 55.32276 189.13086 54.855469 C 190.41589 54.38818 191.60594 53.717968 192.70117 52.841797 L 192.70117 53.279297 C 192.70115 53.907219 192.92127 54.447704 193.35938 54.900391 C 193.81204 55.338474 194.3594 55.556641 195.00195 55.556641 C 195.62985 55.556641 196.16345 55.338474 196.60156 54.900391 C 197.05422 54.447704 197.27927 53.907219 197.2793 53.279297 L 197.2793 43.291016 C 197.27927 39.90318 196.08234 37.012067 193.6875 34.617188 C 191.26341 32.222348 188.3723 31.025416 185.01367 31.025391 z M 202.99609 31.025391 C 202.35357 31.025416 201.8062 31.250461 201.35352 31.703125 C 200.91543 32.141231 200.69726 32.674836 200.69727 33.302734 L 200.69727 53.279297 C 200.69726 53.907219 200.91543 54.447704 201.35352 54.900391 C 201.8062 55.338474 202.35357 55.556641 202.99609 55.556641 C 203.62401 55.556641 204.15762 55.338474 204.5957 54.900391 C 205.04839 54.447704 205.27538 53.907219 205.27539 53.279297 L 205.27539 43.291016 C 205.27538 42.225023 205.4729 41.223658 205.86719 40.289062 C 206.27606 39.354499 206.82342 38.545724 207.50977 37.859375 C 208.21069 37.158457 209.0283 36.609139 209.96289 36.214844 C 210.89746 35.805985 211.89687 35.601583 212.96289 35.601562 C 214.04348 35.601583 215.04485 35.785341 215.96484 36.150391 C 216.3299 36.31104 216.65026 36.390644 216.92773 36.390625 C 217.24898 36.390644 217.5487 36.331686 217.82617 36.214844 C 218.10361 36.098041 218.34437 35.938834 218.54883 35.734375 C 218.75325 35.515354 218.91441 35.265755 219.03125 34.988281 C 219.16266 34.710847 219.22849 34.413079 219.22852 34.091797 C 219.22849 33.463898 219.02409 32.952893 218.61523 32.558594 C 218.20634 32.164341 217.68649 31.857739 217.05859 31.638672 C 216.44526 31.405052 215.76621 31.243892 215.02148 31.15625 C 214.29133 31.068657 213.6054 31.025416 212.96289 31.025391 C 211.5026 31.025416 210.13074 31.257342 208.8457 31.724609 C 207.56065 32.191921 206.37059 32.864087 205.27539 33.740234 L 205.27539 33.302734 C 205.27538 32.674836 205.04839 32.141231 204.5957 31.703125 C 204.15762 31.250461 203.62401 31.025416 202.99609 31.025391 z M 234.07812 31.025391 C 230.69026 31.025416 227.79915 32.222348 225.4043 34.617188 C 223.00943 37.012067 221.8125 39.90318 221.8125 43.291016 C 221.8125 46.678878 223.00943 49.569988 225.4043 51.964844 C 227.79915 54.359707 230.69026 55.556641 234.07812 55.556641 C 237.43676 55.556641 240.32982 54.359707 242.75391 51.964844 C 245.14875 49.599193 246.34568 46.708083 246.3457 43.291016 C 246.33106 41.597104 246.02446 40.027725 245.42578 38.582031 C 244.84163 37.13637 243.95132 35.814639 242.75391 34.617188 C 240.32982 32.222348 237.43676 31.025416 234.07812 31.025391 z M 119.08203 35.601562 C 120.14802 35.601583 121.14744 35.805985 122.08203 36.214844 C 123.01659 36.623742 123.82732 37.179944 124.51367 37.880859 C 125.21459 38.581812 125.76195 39.399421 126.15625 40.333984 C 126.56511 41.253976 126.76951 42.239627 126.76953 43.291016 C 126.76951 44.342428 126.56511 45.334961 126.15625 46.269531 C 125.76195 47.189516 125.21459 48.000245 124.51367 48.701172 C 123.82732 49.402115 123.01659 49.956361 122.08203 50.365234 C 121.14744 50.774119 120.14802 50.97852 119.08203 50.978516 C 118.00141 50.97852 116.99316 50.774119 116.05859 50.365234 C 115.12401 49.956361 114.31328 49.408996 113.62695 48.722656 C 112.94061 48.021729 112.39325 47.204118 111.98438 46.269531 C 111.59009 45.334961 111.39257 44.342428 111.39258 43.291016 C 111.39257 42.239627 111.59009 41.247096 111.98438 40.3125 C 112.39325 39.377937 112.94061 38.56721 113.62695 37.880859 C 114.31328 37.179944 115.12401 36.623742 116.05859 36.214844 C 116.99316 35.805985 118.00141 35.601583 119.08203 35.601562 z M 185.01367 35.601562 C 186.07966 35.601583 187.07907 35.805985 188.01367 36.214844 C 188.94823 36.623742 189.75896 37.179944 190.44531 37.880859 C 191.14623 38.581812 191.69359 39.399421 192.08789 40.333984 C 192.49675 41.253976 192.70115 42.239627 192.70117 43.291016 C 192.70115 44.342428 192.49675 45.334961 192.08789 46.269531 C 191.69359 47.189516 191.14623 48.000245 190.44531 48.701172 C 189.75896 49.402115 188.94823 49.956361 188.01367 50.365234 C 187.07907 50.774119 186.07966 50.97852 185.01367 50.978516 C 183.93305 50.97852 182.9248 50.774119 181.99023 50.365234 C 181.05564 49.956361 180.24492 49.408996 179.55859 48.722656 C 178.87225 48.021729 178.32489 47.204118 177.91602 46.269531 C 177.52173 45.334961 177.32421 44.342428 177.32422 43.291016 C 177.32421 42.239627 177.52173 41.247096 177.91602 40.3125 C 178.32489 39.377937 178.87225 38.56721 179.55859 37.880859 C 180.24492 37.179944 181.05564 36.623742 181.99023 36.214844 C 182.9248 35.805985 183.93305 35.601583 185.01367 35.601562 z M 234.07812 35.601562 C 235.14412 35.601583 236.14548 35.805985 237.08008 36.214844 C 238.01464 36.623742 238.82537 37.179944 239.51172 37.880859 C 240.21263 38.581812 240.76 39.399421 241.1543 40.333984 C 241.56315 41.253976 241.76755 42.239627 241.76758 43.291016 C 241.76755 44.342428 241.56315 45.334961 241.1543 46.269531 C 240.76 47.189516 240.21263 48.000245 239.51172 48.701172 C 238.82537 49.402115 238.01464 49.956361 237.08008 50.365234 C 236.14548 50.774119 235.14412 50.97852 234.07812 50.978516 C 232.9975 50.97852 231.99121 50.774119 231.05664 50.365234 C 230.12205 49.956361 229.31132 49.408996 228.625 48.722656 C 227.93866 48.021729 227.39129 47.204118 226.98242 46.269531 C 226.58814 45.334961 226.39062 44.342428 226.39062 43.291016 C 226.39062 42.239627 226.58814 41.247096 226.98242 40.3125 C 227.39129 39.377937 227.93866 38.56721 228.625 37.880859 C 229.31132 37.179944 230.12205 36.623742 231.05664 36.214844 C 231.99121 35.805985 232.9975 35.601583 234.07812 35.601562 z "
       transform="matrix(4.3022882,0,0,4.3022882,-41.537214,-82.97295)"
       fill-rule="evenodd"
       fill="#4d4d4d" />
    <path
       id="rect4149-7"
       d="M 9.6542969 19.285156 L 9.6542969 65.773438 L 23.259766 65.773438 L 23.259766 32.890625 L 39.701172 32.890625 L 39.701172 19.285156 L 23.259766 19.285156 L 14.480469 19.285156 L 9.6542969 19.285156 z M 42.535156 19.285156 L 42.535156 65.773438 L 56.140625 65.773438 L 56.140625 19.285156 L 42.535156 19.285156 z M 26.095703 35.726562 L 26.095703 65.773438 L 39.701172 65.773438 L 39.701172 35.726562 L 26.095703 35.726562 z "
       transform="matrix(4.3022882,0,0,4.3022882,-41.537214,-82.97295)"
       fill="#35bf5c"
       fill-rule="evenodd" />
  </g>
</svg>
