<?xml version="1.0" encoding="UTF-8" standalone="no"?>
<svg
   xmlns:dc="http://purl.org/dc/elements/1.1/"
   xmlns:cc="http://creativecommons.org/ns#"
   xmlns:rdf="http://www.w3.org/1999/02/22-rdf-syntax-ns#"
   xmlns:svg="http://www.w3.org/2000/svg"
   xmlns="http://www.w3.org/2000/svg"
   xmlns:sodipodi="http://sodipodi.sourceforge.net/DTD/sodipodi-0.dtd"
   xmlns:inkscape="http://www.inkscape.org/namespaces/inkscape"
   width="125"
   height="125"
   viewBox="0 0 117.18749 117.1875"
   id="svg2"
   version="1.1"
   inkscape:version="1.0.2 (e86c870879, 2021-01-15)"
   sodipodi:docname="AboutManjaroGnome.svg">
  <defs
     id="defs4" />
  <sodipodi:namedview
     id="base"
     pagecolor="#ffffff"
     bordercolor="#666666"
     borderopacity="1.0"
     inkscape:pageopacity="0.0"
     inkscape:pageshadow="2"
     inkscape:zoom="2.8284272"
     inkscape:cx="58.085153"
     inkscape:cy="69.3414"
     inkscape:document-units="px"
     inkscape:current-layer="layer1"
     showgrid="false"
     inkscape:showpageshadow="false"
     fit-margin-top="0"
     fit-margin-left="0"
     fit-margin-right="0"
     fit-margin-bottom="0"
     inkscape:window-width="1914"
     inkscape:window-height="1047"
     inkscape:window-x="1923"
     inkscape:window-y="3"
     inkscape:window-maximized="0"
     inkscape:pagecheckerboard="true"
     inkscape:document-rotation="0"
     showguides="true"
     inkscape:guide-bbox="true"
     units="px" />
  <metadata
     id="metadata7">
    <rdf:RDF>
      <cc:Work
         rdf:about="">
        <dc:format>image/svg+xml</dc:format>
        <dc:type
           rdf:resource="http://purl.org/dc/dcmitype/StillImage" />
        <dc:title />
      </cc:Work>
    </rdf:RDF>
  </metadata>
  <g
     inkscape:label="Ebene 1"
     inkscape:groupmode="layer"
     id="layer1"
     transform="translate(222.41168,-236.90016)">
    <path
       id="rect901"
       style="fill:#ffffff;fill-opacity:1;fill-rule:evenodd;stroke:#000000;stroke-width:1;stroke-linecap:round;stroke-linejoin:miter;stroke-miterlimit:4;stroke-dasharray:none;stroke-dashoffset:0;stroke-opacity:1;opacity:0.15"
       d="M 0 0 L 0 125 L 36.460938 125 L 36.460938 62.648438 C 31.313108 57.662022 28.176754 50.690866 29.455078 44.970703 C 31.545852 35.607535 43.805753 30.944336 53.099609 31.101562 C 58.65822 31.19561 63.15424 33.016138 63.78125 36.583984 L 80.791016 36.583984 L 80.791016 0 L 0 0 z M 88.416016 0 L 88.416016 125 L 125 125 L 125 0 L 88.416016 0 z M 67.144531 11.609375 C 79.117609 11.609375 66.396392 28.662109 59.662109 28.662109 C 52.926856 28.662109 55.171933 11.609375 67.144531 11.609375 z M 48.646484 13.699219 C 54.540074 13.719517 50.737741 26.760977 47.263672 26.548828 C 43.676088 26.329831 41.307226 14.612799 48.044922 13.738281 C 48.255557 13.710975 48.456362 13.698557 48.646484 13.699219 z M 37.181641 18.339844 C 41.161779 18.599737 40.767188 28.880414 38.015625 29.441406 C 34.981833 30.061406 30.387278 20.836261 35.802734 18.601562 C 36.31034 18.392112 36.769897 18.312964 37.181641 18.339844 z M 28.341797 25.564453 C 31.637722 25.675376 33.061801 34.207096 30.830078 35.189453 C 28.279539 36.311672 22.48523 29.075417 26.820312 26.080078 C 27.362446 25.705721 27.870949 25.54856 28.341797 25.564453 z M 60.333984 44.207031 C 53.336128 50.575632 39.109164 54.517866 47.369141 60.806641 C 50.852586 63.458886 54.409814 61.426655 53.871094 57.3125 C 53.421419 53.880148 65.933242 51.80106 64.953125 56.988281 C 63.669829 63.790692 56.810162 69.160156 50.863281 69.160156 C 48.597303 69.160156 46.349681 68.666292 44.207031 67.796875 L 44.207031 125 L 80.791016 125 L 80.791016 44.207031 L 60.333984 44.207031 z "
       transform="matrix(0.93749996,0,0,0.93749996,-222.41168,236.90016)" />
  </g>
</svg>
